<?xml version="1.0" encoding="UTF-8"?>
<svg id="Layer_1" xmlns="http://www.w3.org/2000/svg" version="1.1" viewBox="0 0 640 512">
  <!-- Generator: Adobe Illustrator 29.2.1, SVG Export Plug-In . SVG Version: 2.1.0 Build 116)  -->
  <defs>
    <style>
      .st0 {
        fill: #ffffff;
      }
    </style>
  </defs>
  <path class="st0" d="M58.9,42.1c3-6.1,9.6-9.6,16.3-8.7l244.8,30.6,244.8-30.6c6.7-.8,13.3,2.7,16.3,8.7l41.7,83.4c9,17.9-.6,39.6-19.8,45.1l-163.4,46.7c-13.9,4-28.8-1.9-36.2-14.3l-83.4-139-83.4,139c-7.4,12.4-22.3,18.3-36.2,14.3l-163.3-46.7c-19.3-5.5-28.8-27.2-19.8-45.1L58.9,42.1ZM321.1,128l54.9,91.4c14.9,24.8,44.6,36.6,72.5,28.6l127.5-36.4v167c0,22-15,41.2-36.4,46.6l-204.1,51c-10.2,2.6-20.9,2.6-31,0l-204.1-51c-21.4-5.5-36.4-24.7-36.4-46.7v-167l127.6,36.5c27.8,8,57.6-3.8,72.5-28.6l54.8-91.4h2.2Z"/>
</svg>